<svg id="Layer_1" data-name="Layer 1" xmlns="http://www.w3.org/2000/svg" viewBox="0 0 934.55 463.14"><defs><style>.cls-1{fill:#333343;}.cls-2{fill:#fff;}</style></defs><path class="cls-1" d="M640.29,316.13V317H548a55.44,55.44,0,0,0-55.43,55.44v336A55.44,55.44,0,0,0,548,763.92h92.34v.88a7.24,7.24,0,0,0,7.24,7.23h63.88a7.23,7.23,0,0,0,7.23-7.23v-.88h15.24v.88a7.24,7.24,0,0,0,7.24,7.23H805a7.24,7.24,0,0,0,7.24-7.23v-.88h559.39a55.44,55.44,0,0,0,55.44-55.44v-336A55.44,55.44,0,0,0,1371.62,317H757.82v-.88a7.24,7.24,0,0,0-7.24-7.23H647.53A7.24,7.24,0,0,0,640.29,316.13Z" transform="translate(-492.52 -308.9)"/><rect class="cls-2" x="752.47" y="86.9" width="414.64" height="907.12" rx="45.03" transform="translate(-73.19 1191.36) rotate(-90)"/></svg>