<svg id="Layer_1" data-name="Layer 1" xmlns="http://www.w3.org/2000/svg" viewBox="0 0 125.38 341.76"><defs><style>.cls-1{fill:none;}.cls-1,.cls-2,.cls-3{stroke:#103b7f;stroke-width:2px;}.cls-1,.cls-3{stroke-linecap:round;stroke-linejoin:round;}.cls-2,.cls-3{fill:#fff;}.cls-2{stroke-miterlimit:10;}</style></defs><g id="Lines"><path class="cls-1" d="M906.88,375.79h15.17a15,15,0,0,1,14.68,11.88l25,117.52a15,15,0,0,0,14.68,11.88h45.38" transform="translate(-897.42 -369.25)"/><circle class="cls-2" cx="6.54" cy="6.54" r="5.54"/><path class="cls-1" d="M906.88,704.19h15.17a15,15,0,0,0,14.68-11.89l25-117.52a15,15,0,0,1,14.68-11.88h45.38" transform="translate(-897.42 -369.25)"/><circle class="cls-3" cx="6.54" cy="335.22" r="5.54"/><path class="cls-1" d="M906.88,593.24h21.19a15,15,0,0,0,14.56-11.37l4.09-16.39a25,25,0,0,1,24.26-19h50.81" transform="translate(-897.42 -369.25)"/><circle class="cls-3" cx="6.54" cy="224.03" r="5.54"/><path class="cls-1" d="M906.88,485.57h21.2a15,15,0,0,1,14.55,11.36l4.09,16.4A25,25,0,0,0,971,532.28h50.81" transform="translate(-897.42 -369.25)"/><circle class="cls-3" cx="6.54" cy="116.28" r="5.54"/></g></svg>