<svg id="Layer_1" data-name="Layer 1" xmlns="http://www.w3.org/2000/svg" viewBox="0 0 57.02 86.43"><defs><style>.cls-1{fill:#103b7f;}</style></defs><path class="cls-1" d="M952.9,515.81a29,29,0,0,0,.39-5.21,28.51,28.51,0,0,0-2,54.79,35.67,35.67,0,0,1-3.42-7,23.59,23.59,0,0,1,5.06-42.62Zm22.35-1.68a7.36,7.36,0,0,1,1.67,4.67,7.2,7.2,0,0,1-.44,2.51,23.59,23.59,0,0,1-12.18,40.2,48.74,48.74,0,0,0,1.52,4.71,28.51,28.51,0,0,0,9.43-52.09Zm-12.17-4.2a30,30,0,0,1,.78,4.16,7.32,7.32,0,0,1,5.68-2.67h.13A27.92,27.92,0,0,0,963.08,509.93Z" transform="translate(-931.59 -496.92)"/><path class="cls-1" d="M954.14,503c0-.1-.07-.19-.11-.28C954.07,502.82,954.1,502.91,954.14,503Z" transform="translate(-931.59 -496.92)"/><path class="cls-1" d="M954,502.73c0,.09.07.18.11.28C954.1,502.91,954.07,502.82,954,502.73Z" transform="translate(-931.59 -496.92)"/><path class="cls-1" d="M960,572.27a.61.61,0,0,0,.07.1,40,40,0,0,1-5.58-6.12,34.24,34.24,0,0,1-3.67-6.26c-4-8.76-4.44-19.85,1.21-33.54a45.42,45.42,0,0,0,3.16-11.26,30.16,30.16,0,0,0,.28-4.1c0-.27,0-.54,0-.81v-.13c0-.13,0-.25,0-.37s0-.22,0-.33a23.69,23.69,0,0,0-.34-2.85c0-.13,0-.25-.07-.37s0-.24-.07-.35-.05-.24-.08-.35-.06-.23-.08-.34l-.09-.34-.09-.32c0-.11-.06-.21-.1-.32a2.76,2.76,0,0,0-.08-.27c-.1-.32-.21-.63-.32-.93,0-.1-.07-.19-.11-.28s-.07-.19-.11-.28a2.14,2.14,0,0,0-.1-.22c-.15-.37-.32-.72-.48-1.05l-.12-.23q-.24-.46-.48-.87c-.08-.13-.16-.26-.25-.39a1.74,1.74,0,0,0-.11-.18l-.12-.18-.12-.17L952,499l-.11-.16-.12-.15a10.3,10.3,0,0,0-1-1.2.12.12,0,0,0,0-.05l0,0,0,0,0,0-.07-.07-.13-.12-.27-.24h0l.32.19.1.07a21.85,21.85,0,0,1,10.11,12.59,25.61,25.61,0,0,1,1,5c.88,9.07-2.44,19.26-5.72,28a28.71,28.71,0,0,0-1.8,11.58c0,.28,0,.56,0,.84,0,.47.08.93.13,1.39a1.49,1.49,0,0,1,0,.21c.05.34.09.68.14,1,0,0,0,.06,0,.08s0,.29.07.43c.12.76.28,1.51.45,2.23l.18.75s0,.09,0,.14.05.2.08.3l.09.34.24.81c0,.11.07.22.1.32.35,1.11.73,2.14,1.12,3.08l.12.31a.36.36,0,0,1,0,.09l.09.21.13.3c.09.2.17.39.26.57a2.39,2.39,0,0,0,.13.28c.33.72.66,1.37,1,1.93,0,.07.07.14.11.2.41.75.76,1.33,1,1.7l.1.16.12.17,0,.06Z" transform="translate(-931.59 -496.92)"/><path class="cls-1" d="M973.33,583.35A52,52,0,0,1,961,566.78l-2.14-4.93c-.17-.46-.34-.92-.51-1.4-5.28-15.09,10.32-32.24,10.32-32.24s-7.61,13.93-6.89,27.08a32.88,32.88,0,0,0,1,6.43,48.74,48.74,0,0,0,1.51,4.76A79.34,79.34,0,0,0,973.33,583.35Z" transform="translate(-931.59 -496.92)"/><path class="cls-1" d="M975.08,518.91c0,.11,0,.23,0,.34L975,520l-.08.15a5.36,5.36,0,0,1-1.36,2.48,5.52,5.52,0,0,1-1.42,1.07l-.29.14a5.32,5.32,0,0,1-1.36.4,4.76,4.76,0,0,1-.84.07,5.42,5.42,0,1,1,5.41-5.42Z" transform="translate(-931.59 -496.92)"/></svg>