<svg id="Layer_1" data-name="Layer 1" xmlns="http://www.w3.org/2000/svg" viewBox="0 0 59.9 55.24"><defs><style>.cls-1{fill:#103b7f;}</style></defs><path class="cls-1" d="M975.09,526.32h-15v13.81c-8.28,0-15-6.18-15-13.81s6.71-13.81,15-13.81S975.09,518.69,975.09,526.32Z" transform="translate(-930.15 -512.51)"/><path class="cls-1" d="M975.09,553.94c0,7.63-6.71,13.81-15,13.81s-15-6.18-15-13.81h15c0-3.93-.08-9.82,0-13.81C968.38,540.13,975.09,546.32,975.09,553.94Z" transform="translate(-930.15 -512.51)"/><path class="cls-1" d="M990.06,540.13c0,7.63-6.71,13.81-15,13.81V526.32C983.35,526.32,990.06,532.5,990.06,540.13Z" transform="translate(-930.15 -512.51)"/><path class="cls-1" d="M945.14,553.94c-8.27,0-15-6.18-15-13.81s6.72-13.81,15-13.81C945.12,534.55,945.12,540.13,945.14,553.94Z" transform="translate(-930.15 -512.51)"/></svg>