<svg id="Layer_1" data-name="Layer 1" xmlns="http://www.w3.org/2000/svg" xmlns:xlink="http://www.w3.org/1999/xlink" viewBox="0 0 59.78 59.35"><defs><style>.cls-1{fill:#103b7f;}.cls-2{clip-path:url(#clip-path);}.cls-3{clip-path:url(#clip-path-2);}.cls-4{clip-path:url(#clip-path-3);}.cls-5{clip-path:url(#clip-path-4);}.cls-6{clip-path:url(#clip-path-5);}</style><clipPath id="clip-path" transform="translate(-929.54 -511.55)"><circle class="cls-1" cx="967.75" cy="536.47" r="1.99"/></clipPath><clipPath id="clip-path-2" transform="translate(-929.54 -511.55)"><circle class="cls-1" cx="939.83" cy="536.47" r="1.99"/></clipPath><clipPath id="clip-path-3" transform="translate(-929.54 -511.55)"><circle class="cls-1" cx="959.06" cy="537.26" r="1.99"/></clipPath><clipPath id="clip-path-4" transform="translate(-929.54 -511.55)"><circle class="cls-1" cx="958.99" cy="518.55" r="1.99"/></clipPath><clipPath id="clip-path-5" transform="translate(-929.54 -511.55)"><circle class="cls-1" cx="958.99" cy="551.61" r="1.99"/></clipPath></defs><path class="cls-1" d="M942.33,519.25a27.18,27.18,0,1,0,47,22.76,29.9,29.9,0,1,1-35-30.46A27.06,27.06,0,0,0,942.33,519.25Z" transform="translate(-929.54 -511.55)"/><path class="cls-1" d="M959.89,561a23.41,23.41,0,1,0-14.75-42.46,25.73,25.73,0,1,1,2.77,39.85A23.28,23.28,0,0,0,959.89,561Z" transform="translate(-929.54 -511.55)"/><circle class="cls-1" cx="38.21" cy="24.92" r="1.99"/><g class="cls-2"><polygon class="cls-1" points="38.47 22.92 36.22 22.99 36.22 22.92 38.47 22.92"/><polygon class="cls-1" points="40.2 23 36.22 23.12 36.22 22.99 38.47 22.92 40.2 22.92 40.2 23"/><polygon class="cls-1" points="40.2 23.13 36.22 23.24 36.22 23.12 40.2 23 40.2 23.13"/><polygon class="cls-1" points="40.2 23.25 36.22 23.37 36.22 23.24 40.2 23.13 40.2 23.25"/><polygon class="cls-1" points="40.2 23.37 36.22 23.5 36.22 23.37 40.2 23.25 40.2 23.37"/><polygon class="cls-1" points="40.2 23.5 36.22 23.62 36.22 23.5 40.2 23.37 40.2 23.5"/><polygon class="cls-1" points="40.2 23.62 36.22 23.75 36.22 23.62 40.2 23.5 40.2 23.62"/><polygon class="cls-1" points="40.2 23.75 36.22 23.87 36.22 23.75 40.2 23.62 40.2 23.75"/><polygon class="cls-1" points="40.2 23.88 36.22 24 36.22 23.87 40.2 23.75 40.2 23.88"/><polygon class="cls-1" points="40.2 24 36.22 24.12 36.22 24 40.2 23.88 40.2 24"/><polygon class="cls-1" points="40.2 24.13 36.22 24.25 36.22 24.12 40.2 24 40.2 24.13"/><polygon class="cls-1" points="40.2 24.25 36.22 24.37 36.22 24.25 40.2 24.13 40.2 24.25"/><polygon class="cls-1" points="40.2 24.38 36.22 24.5 36.22 24.37 40.2 24.25 40.2 24.38"/><polygon class="cls-1" points="40.2 24.5 36.22 24.63 36.22 24.5 40.2 24.38 40.2 24.5"/><polygon class="cls-1" points="40.2 24.63 36.22 24.75 36.22 24.63 40.2 24.5 40.2 24.63"/><polygon class="cls-1" points="40.2 24.75 36.22 24.88 36.22 24.75 40.2 24.63 40.2 24.75"/><polygon class="cls-1" points="40.2 24.88 36.22 25 36.22 24.88 40.2 24.75 40.2 24.88"/><polygon class="cls-1" points="40.2 25.01 36.22 25.13 36.22 25 40.2 24.88 40.2 25.01"/><polygon class="cls-1" points="40.2 25.13 36.22 25.25 36.22 25.13 40.2 25.01 40.2 25.13"/><polygon class="cls-1" points="36.22 25.25 40.2 25.13 40.2 26.91 36.22 26.91 36.22 25.25"/></g><circle class="cls-1" cx="10.29" cy="24.92" r="1.99"/><g class="cls-3"><polygon class="cls-1" points="10.56 22.92 8.3 22.99 8.3 22.92 10.56 22.92"/><polygon class="cls-1" points="12.28 23 8.3 23.12 8.3 22.99 10.56 22.92 12.28 22.92 12.28 23"/><polygon class="cls-1" points="12.28 23.13 8.3 23.24 8.3 23.12 12.28 23 12.28 23.13"/><polygon class="cls-1" points="12.28 23.25 8.3 23.37 8.3 23.24 12.28 23.13 12.28 23.25"/><polygon class="cls-1" points="12.28 23.37 8.3 23.5 8.3 23.37 12.28 23.25 12.28 23.37"/><polygon class="cls-1" points="12.28 23.5 8.3 23.62 8.3 23.5 12.28 23.37 12.28 23.5"/><polygon class="cls-1" points="12.28 23.62 8.3 23.75 8.3 23.62 12.28 23.5 12.28 23.62"/><polygon class="cls-1" points="12.28 23.75 8.3 23.87 8.3 23.75 12.28 23.62 12.28 23.75"/><polygon class="cls-1" points="12.28 23.88 8.3 24 8.3 23.87 12.28 23.75 12.28 23.88"/><polygon class="cls-1" points="12.28 24 8.3 24.12 8.3 24 12.28 23.88 12.28 24"/><polygon class="cls-1" points="12.28 24.13 8.3 24.25 8.3 24.12 12.28 24 12.28 24.13"/><polygon class="cls-1" points="12.28 24.25 8.3 24.37 8.3 24.25 12.28 24.13 12.28 24.25"/><polygon class="cls-1" points="12.28 24.38 8.3 24.5 8.3 24.37 12.28 24.25 12.28 24.38"/><polygon class="cls-1" points="12.28 24.5 8.3 24.63 8.3 24.5 12.28 24.38 12.28 24.5"/><polygon class="cls-1" points="12.28 24.63 8.3 24.75 8.3 24.63 12.28 24.5 12.28 24.63"/><polygon class="cls-1" points="12.28 24.75 8.3 24.88 8.3 24.75 12.28 24.63 12.28 24.75"/><polygon class="cls-1" points="12.28 24.88 8.3 25 8.3 24.88 12.28 24.75 12.28 24.88"/><polygon class="cls-1" points="12.28 25.01 8.3 25.13 8.3 25 12.28 24.88 12.28 25.01"/><polygon class="cls-1" points="12.28 25.13 8.3 25.25 8.3 25.13 12.28 25.01 12.28 25.13"/><polygon class="cls-1" points="8.3 25.25 12.28 25.13 12.28 26.91 8.3 26.91 8.3 25.25"/></g><circle class="cls-1" cx="29.52" cy="25.71" r="1.99"/><g class="cls-4"><polygon class="cls-1" points="29.78 23.72 27.53 23.79 27.53 23.72 29.78 23.72"/><polygon class="cls-1" points="31.51 23.8 27.53 23.91 27.53 23.79 29.78 23.72 31.51 23.72 31.51 23.8"/><polygon class="cls-1" points="31.51 23.92 27.53 24.04 27.53 23.91 31.51 23.8 31.51 23.92"/><polygon class="cls-1" points="31.51 24.05 27.53 24.16 27.53 24.04 31.51 23.92 31.51 24.05"/><polygon class="cls-1" points="31.51 24.17 27.53 24.29 27.53 24.16 31.51 24.05 31.51 24.17"/><polygon class="cls-1" points="31.51 24.3 27.53 24.42 27.53 24.29 31.51 24.17 31.51 24.3"/><polygon class="cls-1" points="31.51 24.42 27.53 24.55 27.53 24.42 31.51 24.3 31.51 24.42"/><polygon class="cls-1" points="31.51 24.55 27.53 24.67 27.53 24.55 31.51 24.42 31.51 24.55"/><polygon class="cls-1" points="31.51 24.67 27.53 24.79 27.53 24.67 31.51 24.55 31.51 24.67"/><polygon class="cls-1" points="31.51 24.79 27.53 24.92 27.53 24.79 31.51 24.67 31.51 24.79"/><polygon class="cls-1" points="31.51 24.93 27.53 25.04 27.53 24.92 31.51 24.79 31.51 24.93"/><polygon class="cls-1" points="31.51 25.05 27.53 25.17 27.53 25.04 31.51 24.93 31.51 25.05"/><polygon class="cls-1" points="31.51 25.18 27.53 25.29 27.53 25.17 31.51 25.05 31.51 25.18"/><polygon class="cls-1" points="31.51 25.3 27.53 25.42 27.53 25.29 31.51 25.18 31.51 25.3"/><polygon class="cls-1" points="31.51 25.42 27.53 25.55 27.53 25.42 31.51 25.3 31.51 25.42"/><polygon class="cls-1" points="31.51 25.55 27.53 25.67 27.53 25.55 31.51 25.42 31.51 25.55"/><polygon class="cls-1" points="31.51 25.67 27.53 25.8 27.53 25.67 31.51 25.55 31.51 25.67"/><polygon class="cls-1" points="31.51 25.8 27.53 25.92 27.53 25.8 31.51 25.67 31.51 25.8"/><polygon class="cls-1" points="31.51 25.93 27.53 26.05 27.53 25.92 31.51 25.8 31.51 25.93"/><polygon class="cls-1" points="27.53 26.05 31.51 25.93 31.51 27.71 27.53 27.71 27.53 26.05"/></g><path class="cls-1" d="M978.71,537.68A19.71,19.71,0,0,1,943.57,550a19.43,19.43,0,0,1-4.26-11.56,2,2,0,1,1,1.55-.21,13.91,13.91,0,0,0,25.84,0,2,2,0,1,1,1.12.3,15.06,15.06,0,0,1-27.3,1.71,18.47,18.47,0,0,0,3.86,9.11l0,0a18.62,18.62,0,0,0,33.23-11.52h0a18.65,18.65,0,0,0-16.74-18.53,2,2,0,1,1,.06-1.11,19.73,19.73,0,0,1,17.75,19.58Z" transform="translate(-929.54 -511.55)"/><circle class="cls-1" cx="29.45" cy="7" r="1.99"/><g class="cls-5"><polygon class="cls-1" points="29.71 5.01 27.46 5.08 27.46 5.01 29.71 5.01"/><polygon class="cls-1" points="31.45 5.08 27.46 5.2 27.46 5.08 29.71 5.01 31.45 5.01 31.45 5.08"/><polygon class="cls-1" points="31.45 5.2 27.46 5.32 27.46 5.2 31.45 5.08 31.45 5.2"/><polygon class="cls-1" points="31.45 5.32 27.46 5.45 27.46 5.32 31.45 5.2 31.45 5.32"/><polygon class="cls-1" points="31.45 5.46 27.46 5.57 27.46 5.45 31.45 5.32 31.45 5.46"/><polygon class="cls-1" points="31.45 5.58 27.46 5.7 27.46 5.57 31.45 5.46 31.45 5.58"/><polygon class="cls-1" points="31.45 5.71 27.46 5.82 27.46 5.7 31.45 5.58 31.45 5.71"/><polygon class="cls-1" points="31.45 5.83 27.46 5.95 27.46 5.82 31.45 5.71 31.45 5.83"/><polygon class="cls-1" points="31.45 5.95 27.46 6.08 27.46 5.95 31.45 5.83 31.45 5.95"/><polygon class="cls-1" points="31.45 6.08 27.46 6.2 27.46 6.08 31.45 5.95 31.45 6.08"/><polygon class="cls-1" points="31.45 6.2 27.46 6.33 27.46 6.2 31.45 6.08 31.45 6.2"/><polygon class="cls-1" points="31.45 6.33 27.46 6.45 27.46 6.33 31.45 6.2 31.45 6.33"/><polygon class="cls-1" points="31.45 6.46 27.46 6.58 27.46 6.45 31.45 6.33 31.45 6.46"/><polygon class="cls-1" points="31.45 6.58 27.46 6.7 27.46 6.58 31.45 6.46 31.45 6.58"/><polygon class="cls-1" points="31.45 6.71 27.46 6.83 27.46 6.7 31.45 6.58 31.45 6.71"/><polygon class="cls-1" points="31.45 6.83 27.46 6.95 27.46 6.83 31.45 6.71 31.45 6.83"/><polygon class="cls-1" points="31.45 6.96 27.46 7.08 27.46 6.95 31.45 6.83 31.45 6.96"/><polygon class="cls-1" points="31.45 7.08 27.46 7.21 27.46 7.08 31.45 6.96 31.45 7.08"/><polygon class="cls-1" points="31.45 7.21 27.46 7.33 27.46 7.21 31.45 7.08 31.45 7.21"/><polygon class="cls-1" points="27.46 7.33 31.45 7.21 31.45 8.99 27.46 8.99 27.46 7.33"/></g><path class="cls-1" d="M959.06,552h0Z" transform="translate(-929.54 -511.55)"/><circle class="cls-1" cx="29.45" cy="40.06" r="1.99"/><g class="cls-6"><polygon class="cls-1" points="29.71 38.07 27.46 38.14 27.46 38.07 29.71 38.07"/><polygon class="cls-1" points="31.45 38.14 27.46 38.26 27.46 38.14 29.71 38.07 31.45 38.07 31.45 38.14"/><polygon class="cls-1" points="31.45 38.27 27.46 38.38 27.46 38.26 31.45 38.14 31.45 38.27"/><polygon class="cls-1" points="31.45 38.39 27.46 38.52 27.46 38.38 31.45 38.27 31.45 38.39"/><polygon class="cls-1" points="31.45 38.52 27.46 38.64 27.46 38.52 31.45 38.39 31.45 38.52"/><polygon class="cls-1" points="31.45 38.64 27.46 38.77 27.46 38.64 31.45 38.52 31.45 38.64"/><polygon class="cls-1" points="31.45 38.77 27.46 38.89 27.46 38.77 31.45 38.64 31.45 38.77"/><polygon class="cls-1" points="31.45 38.89 27.46 39.02 27.46 38.89 31.45 38.77 31.45 38.89"/><polygon class="cls-1" points="31.45 39.02 27.46 39.14 27.46 39.02 31.45 38.89 31.45 39.02"/><polygon class="cls-1" points="31.45 39.15 27.46 39.26 27.46 39.14 31.45 39.02 31.45 39.15"/><polygon class="cls-1" points="31.45 39.27 27.46 39.39 27.46 39.26 31.45 39.15 31.45 39.27"/><polygon class="cls-1" points="31.45 39.4 27.46 39.51 27.46 39.39 31.45 39.27 31.45 39.4"/><polygon class="cls-1" points="31.45 39.52 27.46 39.65 27.46 39.51 31.45 39.4 31.45 39.52"/><polygon class="cls-1" points="31.45 39.65 27.46 39.77 27.46 39.65 31.45 39.52 31.45 39.65"/><polygon class="cls-1" points="31.45 39.77 27.46 39.89 27.46 39.77 31.45 39.65 31.45 39.77"/><polygon class="cls-1" points="31.45 39.9 27.46 40.02 27.46 39.89 31.45 39.77 31.45 39.9"/><polygon class="cls-1" points="31.45 40.03 27.46 40.14 27.46 40.02 31.45 39.9 31.45 40.03"/><polygon class="cls-1" points="31.45 40.15 27.46 40.27 27.46 40.14 31.45 40.03 31.45 40.15"/><polygon class="cls-1" points="31.45 40.27 27.46 40.39 27.46 40.27 31.45 40.15 31.45 40.27"/><polygon class="cls-1" points="27.46 40.39 31.45 40.27 31.45 42.05 27.46 42.05 27.46 40.39"/></g><path class="cls-1" d="M959.06,552h0Z" transform="translate(-929.54 -511.55)"/><path class="cls-1" d="M959,522.51h-.54v12.84a2,2,0,1,0,1.1,0V523.6a13.66,13.66,0,0,1,1.24,27.22,2,2,0,0,0-1.85-1.21,2,2,0,1,0,2,2.25A14.74,14.74,0,0,0,959,522.51Zm0,29.49h0Z" transform="translate(-929.54 -511.55)"/></svg>