<svg id="Layer_1" data-name="Layer 1" xmlns="http://www.w3.org/2000/svg" viewBox="0 0 72.28 68.03"><defs><style>.cls-1{fill:#103b7f;}</style></defs><path class="cls-1" d="M959.53,534.85h0a2.89,2.89,0,0,0,0-4.09h0a2.9,2.9,0,0,0,0,4.1Z" transform="translate(-923.94 -506.09)"/><path class="cls-1" d="M957.29,535.45h0a2.9,2.9,0,0,0-2.07-3.53h0a2.89,2.89,0,0,0,2,3.53Z" transform="translate(-923.94 -506.09)"/><path class="cls-1" d="M955.69,537.06h0a2.89,2.89,0,0,0-3.54-2.06h0A2.9,2.9,0,0,0,955.69,537.06Z" transform="translate(-923.94 -506.09)"/><path class="cls-1" d="M955.09,539.31h0a2.9,2.9,0,0,0-4.1,0h0A2.9,2.9,0,0,0,955.09,539.31Z" transform="translate(-923.94 -506.09)"/><path class="cls-1" d="M955.7,541.53h0a2.88,2.88,0,0,0-3.53,2.06h0A2.9,2.9,0,0,0,955.7,541.53Z" transform="translate(-923.94 -506.09)"/><path class="cls-1" d="M957.31,543.13h0a2.9,2.9,0,0,0-2.06,3.54h0A2.89,2.89,0,0,0,957.31,543.13Z" transform="translate(-923.94 -506.09)"/><path class="cls-1" d="M959.53,543.73h0a2.89,2.89,0,0,0,0,4.09h0a2.89,2.89,0,0,0,0-4.09Z" transform="translate(-923.94 -506.09)"/><path class="cls-1" d="M961.76,543.13h0a2.91,2.91,0,0,0,2.07,3.54h0A2.91,2.91,0,0,0,961.76,543.13Z" transform="translate(-923.94 -506.09)"/><path class="cls-1" d="M963.37,541.53h0a2.91,2.91,0,0,0,3.54,2.07h0A2.9,2.9,0,0,0,963.37,541.53Z" transform="translate(-923.94 -506.09)"/><path class="cls-1" d="M964,539.31h0a2.9,2.9,0,0,0,4.1,0h0A2.9,2.9,0,0,0,964,539.31Z" transform="translate(-923.94 -506.09)"/><path class="cls-1" d="M963.38,537.06h0a2.88,2.88,0,0,0,3.53-2v0h0A2.9,2.9,0,0,0,963.38,537.06Z" transform="translate(-923.94 -506.09)"/><path class="cls-1" d="M961.78,535.45h0a2.88,2.88,0,0,0,2.07-3.53h0A2.91,2.91,0,0,0,961.78,535.45Z" transform="translate(-923.94 -506.09)"/><path class="cls-1" d="M959.53,534.85h0a2.89,2.89,0,0,0,0-4.09h0a2.9,2.9,0,0,0,0,4.1Z" transform="translate(-923.94 -506.09)"/><path class="cls-1" d="M960.6,525.93v0a3,3,0,0,1-1.73,3.89h0v0a3,3,0,0,1,1.73-3.89h.05Z" transform="translate(-923.94 -506.09)"/><path class="cls-1" d="M953.74,527.2h0a3,3,0,0,1,.48,4.23h0v0l0,0a3,3,0,0,1-.46-4.24Z" transform="translate(-923.94 -506.09)"/><path class="cls-1" d="M948.58,531.58h0a3,3,0,0,1,2.48,3.46h0v0h0a3,3,0,0,1-2.48-3.46Z" transform="translate(-923.94 -506.09)"/><path class="cls-1" d="M946.22,538.14h0a3,3,0,0,1,3.89,1.73h0v0h0a3,3,0,0,1-3.89-1.73h0Z" transform="translate(-923.94 -506.09)"/><path class="cls-1" d="M947.49,545v0a3,3,0,0,1,4.23-.48h0l0,0v0a3,3,0,0,1-4.23.48h0Z" transform="translate(-923.94 -506.09)"/><path class="cls-1" d="M951.87,550.15v0a3,3,0,0,1,3.45-2.5h0v0a3,3,0,0,1-3.46,2.48h0Z" transform="translate(-923.94 -506.09)"/><path class="cls-1" d="M958.44,552.51v0a3,3,0,0,1,1.73-3.89h0v0a3,3,0,0,1-1.73,3.89h0Z" transform="translate(-923.94 -506.09)"/><path class="cls-1" d="M965.3,551.24l0,0a3,3,0,0,1-.47-4.24v0l0,0a3,3,0,0,1,.47,4.23h0Z" transform="translate(-923.94 -506.09)"/><path class="cls-1" d="M970.44,546.86h0a3,3,0,0,1-2.48-3.46h0v0h0a3,3,0,0,1,2.48,3.46h0Z" transform="translate(-923.94 -506.09)"/><path class="cls-1" d="M972.81,540.3h0a3,3,0,0,1-3.89-1.73v-.05h0a3,3,0,0,1,3.89,1.74Z" transform="translate(-923.94 -506.09)"/><path class="cls-1" d="M971.54,533.44v0a3,3,0,0,1-4.24.47h0l0,0,0,0a3,3,0,0,1,4.22-.47h0Z" transform="translate(-923.94 -506.09)"/><path class="cls-1" d="M967.16,528.29v0a3,3,0,0,1-3.46,2.49h-.05v-.05a3,3,0,0,1,3.47-2.48Z" transform="translate(-923.94 -506.09)"/><path class="cls-1" d="M960.6,525.93v0a3,3,0,0,1-1.73,3.89h0v0a3,3,0,0,1,1.73-3.89h.05Z" transform="translate(-923.94 -506.09)"/><path class="cls-1" d="M927,553.32a15.42,15.42,0,0,1-1.31-3c-.54-1.62-1.39-4.47-1.39-4.47l-.33-1a17.84,17.84,0,0,0,.44,3.64,33.42,33.42,0,0,0,2.44,5.83c.19.24,1.57,2.8,2.17,3.84s1.24,2,1.58,2.56.33.91.63.79-.34-1-.34-1l-1.34-2.23-.74-1.48a13.82,13.82,0,0,1-.64-1.23Z" transform="translate(-923.94 -506.09)"/><path class="cls-1" d="M995.77,534.78s-1.83-6.79-5-10.79-4.46-5.51-8-7.91a54.33,54.33,0,0,0-8.4-4.35,39.88,39.88,0,0,0-9-2.17,38.42,38.42,0,0,0-9.87.37c-2.77.28-4.88,1.08-8.54,2.67s-7.6,5.24-10,8-4.53,8.55-5.13,11.15a34.45,34.45,0,0,0-.45,6.84s.15,5.67.45,7.55.45,2.67.45,2.67,0,1-.3,0-.78-3.15-.78-3.15-1.46-6.39-1-11.11a30.29,30.29,0,0,1,2.61-10,31.85,31.85,0,0,1,6.19-9.33c2.09-2.31,3.8-3.76,5.09-5a37.76,37.76,0,0,1,3.67-2.61,17.38,17.38,0,0,1,2.06-.83c.18-.12.19-.68-.18-.72a5.9,5.9,0,0,0-2.29.17,20.7,20.7,0,0,0-2.92,1.35,41.15,41.15,0,0,0-5.43,3.64,36.41,36.41,0,0,0-5.43,5.67,61,61,0,0,0-3.7,6.52,30.19,30.19,0,0,0-1.95,5.31,36.48,36.48,0,0,0-.79,4.75,42.07,42.07,0,0,0,0,8.69,28.76,28.76,0,0,0,2,7.35,47.65,47.65,0,0,0,3.41,7.27,36,36,0,0,0,4.09,5.2,43.79,43.79,0,0,0,4.68,4,50.67,50.67,0,0,0,5.32,3.12,33.62,33.62,0,0,0,6.33,2,48.45,48.45,0,0,0,8.39.39,49.33,49.33,0,0,0,5.29-.83,47.54,47.54,0,0,0,6.37-2.6c2.13-1,6-4.59,7.15-5.71a44.67,44.67,0,0,0,4.09-5.76c.57-1,1.8-3.87,1.8-3.87a4.33,4.33,0,0,0,.22-1.6c-.15-.36-.49.13-.49.13s-.89,1.43-1.63,2.55-3,3.8-4.19,5.26-4.43,3.8-5.21,4.52a14.88,14.88,0,0,1-4.08,2.28,33.61,33.61,0,0,1-4.7.51,32.26,32.26,0,0,1-3.32-.2s-.55,0,1.27-.32,2.62-1,4-1.31a21.54,21.54,0,0,0,5.84-3.26,32.33,32.33,0,0,0,3.94-4.55,31.65,31.65,0,0,0,2.43-5.12,14.34,14.34,0,0,0,.6-3.44,1.33,1.33,0,0,0-.22-.6.13.13,0,0,0-.17-.06.15.15,0,0,0-.06.09c-.1.29-.29.81-.54,1.45a45.58,45.58,0,0,1-3,4.76,37.82,37.82,0,0,1-4,4.19,27.29,27.29,0,0,1-3.3,2.13,53.63,53.63,0,0,1-6.18,2.31,42.1,42.1,0,0,1-5.13.44,22.59,22.59,0,0,1-5.55-.72c-1.58-.48-4.08-1.59-4.08-1.59a64,64,0,0,1-5.67-3.55,29.46,29.46,0,0,1-4.12-5,31.85,31.85,0,0,1-2.71-5.87,19.05,19.05,0,0,0-.78-2.88c-.13-.16-.44-.22-.65-.3l-.12-.06a.34.34,0,0,1-.16-.21l-.68-3.75a18.14,18.14,0,0,1-.15-2.56,9.25,9.25,0,0,1,.6-2.75l.5-1.44.54-1.16a14.56,14.56,0,0,1,.79-1.76,1,1,0,0,1,.23-.26h.08a.08.08,0,0,1,.1.07h0a0,0,0,0,1,0,0l0,.11-.8,3.07-.25,1.51v0l-.13,1.72v2.92s.23,2.27.42,3.19a35.51,35.51,0,0,0,1.34,4.13c.23.48.82,1.86,1.16,2.44s1.32,1.84,1.8,2.6a27,27,0,0,0,2.14,2.31,23.32,23.32,0,0,0,2.33,1.76l1.9,1.16s1.39.87,1.54.92.14,0,.19-.11a.15.15,0,0,0,0-.21c-.4-.36-2-1.73-2.07-1.76s-2-2-2-2-2.29-2.88-2.55-3.32c-.13-.21-1.84-2.88-2-3.26a38.68,38.68,0,0,1-1.57-5s-.38-1.8-.38-2.17v-2.06l0-1.41v-.18a9.85,9.85,0,0,1,.72-2c.26-.48.36-.74.68-1.27.18-.31.54-1.09,1.08-2,.36-.64.82-1.34,1.22-2.09a16.5,16.5,0,0,1,1.63-2.5c.66-.85,1.63-1.91,1.92-2.36a17.15,17.15,0,0,1,2.8-2.71c.26-.22-.08-.6-.08-.6a3,3,0,0,0-1.16.28,13.47,13.47,0,0,0-1.68,1.24s-.6.08-.18-.36a25.39,25.39,0,0,1,2.39-1.72l2.95-1.24c.94-.38,1.91-.78,2.59-1a22.22,22.22,0,0,1,2.5-.72,22.62,22.62,0,0,1,3.84-.63,43.79,43.79,0,0,1,6.36.64,33.35,33.35,0,0,1,5,1.83,49.26,49.26,0,0,1,4.56,2.8,41.92,41.92,0,0,1,5,5,29.15,29.15,0,0,1,2.82,4.15,29.39,29.39,0,0,0,1.38,2.68c.26.44,1.09,0,1.09,0a6.65,6.65,0,0,0,0-1.41c0-1.06-1-2.9-1.46-4.1a22.1,22.1,0,0,0-2.32-3.7,27.27,27.27,0,0,0-3-3.21,42.45,42.45,0,0,0-3.67-2.72,36.77,36.77,0,0,0-4.72-2.51c-1.05-.4-2.55-.72-3.49-1.09a22.2,22.2,0,0,0-5.37-.85,23.23,23.23,0,0,0-5.16.16,18.28,18.28,0,0,0-8,2.64,52.59,52.59,0,0,0-6.22,4.67,55.48,55.48,0,0,0-4.24,4.16,6,6,0,0,1-1.16,1.09,6.81,6.81,0,0,1,.67-1.51c.64-1.23,3-3.89,5.92-6.61a28.65,28.65,0,0,1,18.94-6.95c6.58,0,5.22.68,9,1s7.6,2.88,9.14,3.44,6,4.71,7.46,6a32.77,32.77,0,0,1,5.36,7.6,71.12,71.12,0,0,1,2.66,7.32,16.44,16.44,0,0,0,.6,2s.38,1.88.45-.25A8.92,8.92,0,0,0,995.77,534.78Zm-46.64,31a35.13,35.13,0,0,0,6.48,1.63c1.88.15,5.18.44,6.45.44h3.15a13,13,0,0,1-1.84.44,43.66,43.66,0,0,1-6.67.2,33.51,33.51,0,0,1-5.24-1,25.9,25.9,0,0,1-3.85-1.27,20.18,20.18,0,0,1-2.72-1.63,2.74,2.74,0,0,1-.45-.45.09.09,0,0,1,0-.12h0a.07.07,0,0,1,.09,0C945.36,564.31,947.72,565.36,949.13,565.78Z" transform="translate(-923.94 -506.09)"/><path class="cls-1" d="M990.61,538.88c-.16-.43-.36-1-.41-.71a21.1,21.1,0,0,0,.46,2.37,35.77,35.77,0,0,1,.49,3.61,31.92,31.92,0,0,1-.07,4.89,23.35,23.35,0,0,1-1.31,4.69,49.72,49.72,0,0,1-3.31,6c-.6.92-1.86,2.72-2.55,3.54a38.77,38.77,0,0,1-4.34,4.06,30.33,30.33,0,0,1-4.45,2.9,41.34,41.34,0,0,1-8.64,2.2,60.76,60.76,0,0,1-9.05.16,25.16,25.16,0,0,1-4.94-.92,47.74,47.74,0,0,1-6.15-2.17,38.29,38.29,0,0,1-5.74-3.36,53.09,53.09,0,0,1-5.4-4.88,36.72,36.72,0,0,1-3.8-5.23c-.89-1.62-2.49-6-2.49-6s-1-2.88-1.3-3.8-.5-1.74-.5-1.74a.57.57,0,0,0-.2-.21.28.28,0,0,0-.35.1.92.92,0,0,0,0,.69,17.92,17.92,0,0,0,.64,3.18c.5,1.6.78,2.76,1.14,3.61.2.5.32.82.4,1a.29.29,0,0,1,0,.31c-.07.18-.21.07-.33-.09a2,2,0,0,1-.27-.54l-1.63-4.08s-.72-2.87-1-4.61a22.71,22.71,0,0,1-.27-3.86v-2.56c0-.7.06-1.6.08-2.26a35.42,35.42,0,0,1,.44-4.24c.11-.79,1-4.88,1.23-6a.12.12,0,0,0-.08-.13h0a.11.11,0,0,0-.12.07,3.28,3.28,0,0,0-.27.74c-.25.92-1,3.75-1.4,5.56a45.94,45.94,0,0,0-.7,6.51c0,1,.1,4.1.25,5.3q.57,3,1.42,5.86a50.49,50.49,0,0,0,2.55,6.51l.64,1.24a53.64,53.64,0,0,0,4.95,6.34c1,.84,5,4.63,6.8,5.54a76.59,76.59,0,0,0,8.81,3.84c1.62.37,6.92,1.91,10,1.81a57,57,0,0,0,10.94-1.39A39.24,39.24,0,0,0,977,570a28.44,28.44,0,0,0,4.1-3c.8-.8,2.94-2.8,3.64-3.72s2.9-4,3.21-4.5a43.94,43.94,0,0,0,2.21-3.9,22,22,0,0,0,1.49-4.26,22.43,22.43,0,0,0,.2-3.57c0-1.23-.16-3.13-.25-4A35.84,35.84,0,0,0,990.61,538.88Z" transform="translate(-923.94 -506.09)"/><path class="cls-1" d="M959,525.29l.54-.21a3.24,3.24,0,0,0,1.83-4.22v0h0l-.2-.51-.51.2a3.27,3.27,0,0,0-1.83,4.23v0Z" transform="translate(-923.94 -506.09)"/><path class="cls-1" d="M966.08,527l.54.08a3.26,3.26,0,0,0,3.72-2.72v0l.08-.54-.54-.08a3.25,3.25,0,0,0-3.7,2.74h0Z" transform="translate(-923.94 -506.09)"/><path class="cls-1" d="M971.23,531.77l.44.34a3.26,3.26,0,0,0,4.57-.56l0,0,.34-.44-.44-.33a3.25,3.25,0,0,0-4.57.56l0,0Z" transform="translate(-923.94 -506.09)"/><path class="cls-1" d="M973.37,538.72l.2.51a3.26,3.26,0,0,0,4.23,1.83h0l.51-.21-.21-.51a3.26,3.26,0,0,0-4.23-1.83h0Z" transform="translate(-923.94 -506.09)"/><path class="cls-1" d="M971.71,545.79l-.08.55a3.26,3.26,0,0,0,2.71,3.72l.55.08.08-.55a3.26,3.26,0,0,0-2.73-3.71h0Z" transform="translate(-923.94 -506.09)"/><path class="cls-1" d="M966.88,551l-.33.44a3.25,3.25,0,0,0,.56,4.57h0l.43.34.34-.44a3.26,3.26,0,0,0-.56-4.57h0Z" transform="translate(-923.94 -506.09)"/><path class="cls-1" d="M959.93,553.08l-.54.21a3.25,3.25,0,0,0-1.82,4.23v0l.21.51.51-.2a3.25,3.25,0,0,0,1.82-4.23v0Z" transform="translate(-923.94 -506.09)"/><path class="cls-1" d="M952.86,551.4l-.54-.08A3.26,3.26,0,0,0,948.6,554v0l-.07.55.54.08a3.26,3.26,0,0,0,3.72-2.72v0Z" transform="translate(-923.94 -506.09)"/><path class="cls-1" d="M947.72,546.6l-.43-.34a3.26,3.26,0,0,0-4.58.56v0l-.34.44.44.34a3.26,3.26,0,0,0,4.57-.56v0Z" transform="translate(-923.94 -506.09)"/><path class="cls-1" d="M945.58,539.65l-.21-.51a3.26,3.26,0,0,0-4.23-1.83l0,0-.51.2.21.51a3.26,3.26,0,0,0,4.23,1.83h0Z" transform="translate(-923.94 -506.09)"/><path class="cls-1" d="M947.23,532.58l.08-.55a3.26,3.26,0,0,0-2.71-3.72l-.54-.08-.09.55a3.26,3.26,0,0,0,2.73,3.71h0Z" transform="translate(-923.94 -506.09)"/><path class="cls-1" d="M952.06,527.42l.34-.43a3.25,3.25,0,0,0-.56-4.57l0,0-.44-.34-.33.43a3.26,3.26,0,0,0,.55,4.58l0,0Z" transform="translate(-923.94 -506.09)"/><path class="cls-1" d="M959,525.29l.54-.21a3.24,3.24,0,0,0,1.83-4.22v0h0l-.2-.51-.51.2a3.27,3.27,0,0,0-1.83,4.23v0Z" transform="translate(-923.94 -506.09)"/></svg>