<svg id="Layer_1" data-name="Layer 1" xmlns="http://www.w3.org/2000/svg" viewBox="0 0 42.32 42.32">
    <defs>
        <style>.cls-1{fill:#103b7f;}</style>
    </defs>
    <path class="cls-1"
          d="M980.22,550.84a4.6,4.6,0,0,0-5.81-2.08,59.58,59.58,0,0,1-5.66,1.93,4.9,4.9,0,0,0-3.51-5.7,5.9,5.9,0,0,0-2.42-.14c-5.67.77-9-1.15-12-2.84-2-1.13-3.89-2.21-6.1-2.21a16.5,16.5,0,0,0-5.13.91,1.65,1.65,0,0,0,1,3.15,12.9,12.9,0,0,1,4.14-.75c1.34,0,2.72.78,4.47,1.78,2.62,1.48,6.05,3.44,11.17,3.44a21.8,21.8,0,0,0,2.92-.21,2.83,2.83,0,0,1,1.1,0,1.6,1.6,0,0,1,1.07,2.12,2.17,2.17,0,0,1-1.28,1.06,11.81,11.81,0,0,1-3.66.52,17.6,17.6,0,0,1-4.46-.52,1.65,1.65,0,1,0-.84,3.19,21.44,21.44,0,0,0,5.3.64h0c6.29,0,11.67-2,15.1-3.31a1.29,1.29,0,0,1,1.71.54,1.23,1.23,0,0,1-.51,1.65,31.93,31.93,0,0,1-16,4.27c-6.3,0-12.11-2.43-15.86-4.47a7.69,7.69,0,0,0-5.15-1,1.6,1.6,0,0,0-1.33,1.62,1.66,1.66,0,0,0,1.66,1.66,2.64,2.64,0,0,0,.42-.06,4.66,4.66,0,0,1,2.82.72c4.09,2.22,10.44,4.87,17.44,4.87a35.52,35.52,0,0,0,17.6-4.65,4.59,4.59,0,0,0,1.87-6.13Z"
          transform="translate(-938.41 -519.31)"/>
    <path class="cls-1"
          d="M952.7,535.52a1.64,1.64,0,0,0,1.43.82,1.58,1.58,0,0,0,.83-.23l1.48-.86a7.61,7.61,0,0,0,3.89,2.22v1.67a1.66,1.66,0,1,0,3.31,0v-1.67a7.58,7.58,0,0,0,3.83-2.15l1.36.79a1.59,1.59,0,0,0,.84.23,1.65,1.65,0,0,0,.83-3.08l-1.31-.77a7.52,7.52,0,0,0,.4-2.44,7.61,7.61,0,0,0-.4-2.44l1.32-.77a1.65,1.65,0,0,0-1.68-2.85l-1.36.8a7.6,7.6,0,0,0-3.83-2.16V521a1.66,1.66,0,0,0-3.31,0v1.67a7.59,7.59,0,0,0-3.89,2.23L955,524a1.65,1.65,0,1,0-1.67,2.85l1.46.86a7.65,7.65,0,0,0,0,4.7l-1.46.86a1.65,1.65,0,0,0-.59,2.26Zm9.29-9.77a4.3,4.3,0,1,1-4.3,4.3A4.31,4.31,0,0,1,962,525.75Z"
          transform="translate(-938.41 -519.31)"/>
</svg>