<svg id="Layer_1" data-name="Layer 1" xmlns="http://www.w3.org/2000/svg" viewBox="0 0 39.1 39.06"><defs><style>.cls-1{fill:#103b7f;}</style></defs><path class="cls-1" d="M974.62,545.2v2.15a2,2,0,0,1,1.35,1.9h3.36a6.22,6.22,0,0,0-1.63-4Z" transform="translate(-940.24 -520.93)"/><path class="cls-1" d="M974,552.62a2,2,0,0,1-2-2h-3.37v1.69a8.24,8.24,0,0,0,.37,2.44,5.47,5.47,0,0,1,1.75.67,4.21,4.21,0,0,0,4.3,0,5.1,5.1,0,0,1,2.8-.76,5.58,5.58,0,0,1,1.19.12,8.08,8.08,0,0,0,.38-2.47V550.6H976a2,2,0,0,1-2,2Z" transform="translate(-940.24 -520.93)"/><path class="cls-1" d="M975.62,556.58a5.52,5.52,0,0,1-5.59,0l-.38-.2a4.44,4.44,0,0,0,8.78-.34,4.54,4.54,0,0,0-.66,0,3.88,3.88,0,0,0-2.15.59Z" transform="translate(-940.24 -520.93)"/><path class="cls-1" d="M974,551.27a.67.67,0,0,0,.67-.67v-1.35a.68.68,0,1,0-1.35,0v1.35a.67.67,0,0,0,.68.67Z" transform="translate(-940.24 -520.93)"/><path class="cls-1" d="M973.27,545.2h-3.08a6.22,6.22,0,0,0-1.63,4h3.36a2,2,0,0,1,1.35-1.9Z" transform="translate(-940.24 -520.93)"/><path class="cls-1" d="M948.69,532a8.37,8.37,0,0,0,.45,1.09l.17.32-.83,1.44,2.13,2.13,1.44-.83.32.17a7.17,7.17,0,0,0,1.09.45l.35.11.43,1.6h3l.43-1.6.35-.11a7.07,7.07,0,0,0,1.08-.45l.33-.17,1.44.83,2.13-2.13-.83-1.44.16-.32a7.24,7.24,0,0,0,.46-1.09l.11-.35,1.6-.43v-3l-1.6-.43-.11-.34a6.84,6.84,0,0,0-.46-1.09l-.16-.33.83-1.43-2.13-2.13-1.44.83-.33-.17a7.14,7.14,0,0,0-1.08-.46l-.35-.11-.43-1.6h-3l-.43,1.6-.35.11a7.24,7.24,0,0,0-1.09.46l-.32.16-1.44-.82-2.13,2.12.83,1.44-.17.33a8.25,8.25,0,0,0-.45,1.08l-.11.35-1.6.43v3l1.6.43.11.35Zm7-8.35a6.07,6.07,0,1,1-6.06,6.07,6.07,6.07,0,0,1,6.06-6.07Z" transform="translate(-940.24 -520.93)"/><polygon class="cls-1" points="20.9 32.36 10.11 32.36 10.11 35.06 7.42 35.06 7.42 36.41 23.6 36.41 23.6 35.06 20.9 35.06 20.9 32.36 20.9 32.36"/><path class="cls-1" d="M955.74,534.42A4.72,4.72,0,1,0,951,529.7a4.72,4.72,0,0,0,4.72,4.72Zm0-6.74a2,2,0,1,1-2,2,2,2,0,0,1,2-2Z" transform="translate(-940.24 -520.93)"/><path class="cls-1" d="M940.24,549.92a2,2,0,0,0,2,2H967.2v-2.54a7.59,7.59,0,0,1,.16-1.51H940.24v2Zm6.74-.67h1.35v1.35H947v-1.35Zm-2.7,0h1.35v1.35h-1.35v-1.35Zm-2.69,0h1.34v1.35h-1.34v-1.35Z" transform="translate(-940.24 -520.93)"/><path class="cls-1" d="M969.6,543.86h1.65v-4.05h-2a3.37,3.37,0,0,1,0-6.74h8.09a.67.67,0,0,1,.67.67.68.68,0,0,1-.67.68h-8.09a2,2,0,1,0,0,4h3.37a.68.68,0,0,1,.67.68v3.55a1.36,1.36,0,0,0-.67,1.17h2.69a1.36,1.36,0,0,0-.67-1.17v-3.55a2,2,0,0,0-2-2h-3.37a.67.67,0,1,1,0-1.34h8.09a2,2,0,0,0,0-4h-6.07v-.67a2,2,0,0,0-2-2h-3.37v3.22l-1.9.51c-.08.2-.16.4-.25.6l1,1.7-3.59,3.59-1.71-1c-.2.09-.4.18-.6.25l-.51,1.9H953.2l-.5-1.9a6.5,6.5,0,0,1-.61-.25l-1.7,1-3.59-3.59,1-1.7c-.09-.2-.18-.4-.25-.6l-1.9-.51V529h-3.37a2,2,0,0,0-2,2v15.5h27.53a7.39,7.39,0,0,1,1.43-2.26Z" transform="translate(-940.24 -520.93)"/></svg>