<svg id="Layer_1" data-name="Layer 1" xmlns="http://www.w3.org/2000/svg" viewBox="0 0 42.32 42.32">
    <defs>
        <style>.cls-1{fill:#103b7f;}</style>
    </defs>
    <path class="cls-1"
          d="M964,561.62h-15.7a9.93,9.93,0,0,1-9.92-9.92V529.22a9.93,9.93,0,0,1,9.92-9.91h22.48a9.93,9.93,0,0,1,9.91,9.91v15.83a1.65,1.65,0,0,1-3.3,0V529.22a6.62,6.62,0,0,0-6.61-6.61H948.26a6.63,6.63,0,0,0-6.62,6.61V551.7a6.63,6.63,0,0,0,6.62,6.62H964a1.65,1.65,0,0,1,0,3.3Zm8.43-31.9a1.65,1.65,0,0,0-1.65-1.65H955.61a1.65,1.65,0,0,0,0,3.3h15.13A1.65,1.65,0,0,0,972.39,529.72Zm0,6.61a1.65,1.65,0,0,0-1.65-1.65H948.26a1.66,1.66,0,1,0,0,3.31h22.48A1.65,1.65,0,0,0,972.39,536.33Zm-16.53,6.61a1.65,1.65,0,0,0-1.65-1.65h-6a1.66,1.66,0,1,0,0,3.31h6A1.65,1.65,0,0,0,955.86,542.94Zm-9.26-13.38a2.07,2.07,0,1,0,2.07-2.07A2.07,2.07,0,0,0,946.6,529.56Zm32.29,30.3a6.05,6.05,0,0,0,0-8.54l-5.8-5.79a11.8,11.8,0,0,0-6.11-3.27l-4.68-.94a1.62,1.62,0,0,0-1.49.46,1.68,1.68,0,0,0-.46,1.49l.94,4.68a11.91,11.91,0,0,0,3.27,6.11l5.79,5.8a6.06,6.06,0,0,0,8.54,0ZM966.33,545.5a8.59,8.59,0,0,1,4.42,2.37l5.8,5.79a2.73,2.73,0,1,1-3.86,3.86l-5.79-5.8a8.66,8.66,0,0,1-2.37-4.42l-.45-2.25Z"
          transform="translate(-938.34 -519.31)"/>
</svg>