<svg id="Layer_1" data-name="Layer 1" xmlns="http://www.w3.org/2000/svg" viewBox="0 0 52.84 45.41"><defs><style>.cls-1{fill:#103b7f;}</style></defs><path class="cls-1" d="M952.3,545.6l-6.58,6.58-3.08-3.08a1.54,1.54,0,0,0-2.19,0,1.56,1.56,0,0,0,0,2.19l4.18,4.17a1.56,1.56,0,0,0,2.19,0l7.66-7.67a1.55,1.55,0,1,0-2.18-2.19Z" transform="translate(-933.48 -517.76)"/><path class="cls-1" d="M984.78,537.21H935a1.55,1.55,0,0,0-1.55,1.55v22.86a1.55,1.55,0,0,0,1.55,1.55h49.75a1.54,1.54,0,0,0,1.54-1.55V538.76a1.54,1.54,0,0,0-1.54-1.55Zm-48.2,3.1h21.78v19.77H936.58Zm46.65,19.77H961.45V540.31h21.78Z" transform="translate(-933.48 -517.76)"/><path class="cls-1" d="M967.41,555.46a1.54,1.54,0,0,0,2.19,0l2.74-2.74,2.74,2.74a1.54,1.54,0,0,0,2.19,0,1.56,1.56,0,0,0,0-2.19l-2.74-2.74,2.74-2.74a1.55,1.55,0,0,0-2.19-2.19l-2.74,2.74-2.74-2.74a1.55,1.55,0,1,0-2.19,2.19l2.74,2.74-2.74,2.74a1.56,1.56,0,0,0,0,2.19Z" transform="translate(-933.48 -517.76)"/><path class="cls-1" d="M934.4,524.36l7.48,3.66a1.62,1.62,0,0,0,.68.16h38.51a5.21,5.21,0,0,0,5.2-5.2v0a5.2,5.2,0,0,0-5.2-5.2H942.56a1.48,1.48,0,0,0-.68.16l-7.48,3.66A1.55,1.55,0,0,0,934.4,524.36Zm48.77-1.4v0a2.1,2.1,0,0,1-2.1,2.1h-.69v-4.23h.69A2.11,2.11,0,0,1,983.17,523Zm-5.89,2.12H948.54v-4.23h28.74Zm-34.36-4.23h2.53v4.23h-2.53L938.6,523Z" transform="translate(-933.48 -517.76)"/></svg>