<svg id="Layer_1" data-name="Layer 1" xmlns="http://www.w3.org/2000/svg" viewBox="0 0 42.32 42.32">
    <defs>
        <style>.cls-1{fill:#103b7f;}</style>
    </defs>
    <path class="cls-1"
          d="M980.83,539.8v1.08a1.66,1.66,0,0,1-3.31,0V539.8a6.62,6.62,0,0,0-6.61-6.61H948.43a6.62,6.62,0,0,0-6.61,6.61v11.9a6.63,6.63,0,0,0,6.61,6.62h11a1.65,1.65,0,1,1,0,3.3h-11a9.93,9.93,0,0,1-9.92-9.92V539.8a9.92,9.92,0,0,1,9.92-9.91h22.48a9.92,9.92,0,0,1,9.92,9.91Zm-25.21,7.36a5.71,5.71,0,0,1-5.7-5.7,1.66,1.66,0,1,0-3.31,0,9,9,0,0,0,9,9h3.14a1.66,1.66,0,1,0,0-3.31Zm-2.15-20.5a1.65,1.65,0,0,0,1.66-1.65,2.4,2.4,0,0,1,2.39-2.4h4.3a2.41,2.41,0,0,1,2.4,2.4,1.65,1.65,0,1,0,3.3,0,5.7,5.7,0,0,0-5.7-5.7h-4.3a5.71,5.71,0,0,0-5.7,5.7A1.65,1.65,0,0,0,953.47,526.66Zm6.2,12a2.07,2.07,0,1,0,2.07,2.06A2.06,2.06,0,0,0,959.67,538.65Zm20.92,18.12a1.63,1.63,0,0,1-1.42.8,1.61,1.61,0,0,1-.84-.23l-1.13-.68a6.92,6.92,0,0,1-3.31,1.87V560a1.66,1.66,0,0,1-3.31,0v-1.44a7,7,0,0,1-3.38-1.93l-1.22.74a1.65,1.65,0,0,1-1.7-2.84l1.24-.74a7,7,0,0,1,0-4.11l-1.24-.74a1.65,1.65,0,0,1,1.7-2.84l1.22.74a7,7,0,0,1,3.38-1.93v-1.44a1.66,1.66,0,0,1,3.31,0v1.44a6.92,6.92,0,0,1,3.31,1.87l1.13-.68a1.65,1.65,0,0,1,1.7,2.84l-1.1.66a7.07,7.07,0,0,1,0,4.27l1.1.66a1.66,1.66,0,0,1,.56,2.27ZM976,551.7a3.72,3.72,0,1,0-3.72,3.72A3.72,3.72,0,0,0,976,551.7Z"
          transform="translate(-938.51 -519.31)"/>
</svg>