<svg id="Layer_1" data-name="Layer 1" xmlns="http://www.w3.org/2000/svg" viewBox="0 0 51.44 51.44">
    <defs>
        <style>.cls-1{fill:#103b7f;}</style>
    </defs>
    <path class="cls-1"
          d="M959.48,535a2,2,0,1,1-2,2A2,2,0,0,1,959.48,535Zm7,2a2,2,0,1,0,2-2A2,2,0,0,0,966.51,537.05Zm-18.09,0a2,2,0,1,0,2-2A2,2,0,0,0,948.42,537.05Zm35.11,18.84a6,6,0,0,1,0,8.53,6,6,0,0,1-8.52,0l-11-11a2.09,2.09,0,0,1-.51-.84l-2.4-7.91a2,2,0,0,1,2.46-2.52l8.11,2.24a2,2,0,0,1,.88.52Zm-16.36-5,7.44,7.42,2.85-2.84-7.4-7.38L966,547Zm13.52,7.81-.39-.39-2.84,2.84.39.39a2,2,0,0,0,2.84-2.84Zm-20-2.35-1.11,0a24.27,24.27,0,0,1-9.25-1.79,2,2,0,0,0-1.54,0l-9.15,3.86,3.08-7.3a2,2,0,0,0-.35-2.12,17,17,0,0,1-4.5-11.43c0-10.41,9.74-18.88,21.71-18.88s21.7,8.47,21.7,18.88a16.6,16.6,0,0,1-1.8,7.36,2,2,0,1,0,3.6,1.78,20.51,20.51,0,0,0,2.22-9.14c0-12.63-11.54-22.89-25.72-22.89S933.86,525,933.86,537.64a20.83,20.83,0,0,0,4.68,13.12L934,561.49a2,2,0,0,0,1.86,2.79,2,2,0,0,0,.78-.16l13-5.47a28.4,28.4,0,0,0,10,1.78l1.29,0a2,2,0,1,0-.18-4Z"
          transform="translate(-933.86 -514.75)"/>
</svg>