<svg id="Layer_1" data-name="Layer 1" xmlns="http://www.w3.org/2000/svg" viewBox="0 0 42.32 39.91">
    <defs>
        <style>.cls-1{fill:#103b7f;}</style>
    </defs>
    <path class="cls-1"
          d="M980.83,530.79v8.13a1.66,1.66,0,1,1-3.31,0v-8.13a6.74,6.74,0,0,0-6.61-6.86H948.43a6.75,6.75,0,0,0-6.61,6.86v13.87a6.74,6.74,0,0,0,6.61,6.85h10.33a1.72,1.72,0,0,1,0,3.43H948.43a10.12,10.12,0,0,1-9.92-10.28V530.79a10.12,10.12,0,0,1,9.92-10.28h22.48a10.12,10.12,0,0,1,9.92,10.28Zm-7.18,3.76a1.74,1.74,0,0,0,.31-2.4,1.62,1.62,0,0,0-2.32-.33l-8,6.3a6.46,6.46,0,0,1-8,0l-7.88-6.23a1.62,1.62,0,0,0-2.32.32,1.75,1.75,0,0,0,.32,2.4l7.88,6.23a9.66,9.66,0,0,0,12,0ZM980,547.24l-1.1.69a7.6,7.6,0,0,1,0,4.43l1.1.68a1.75,1.75,0,0,1,.56,2.35,1.62,1.62,0,0,1-1.42.83,1.54,1.54,0,0,1-.84-.24l-1.13-.7a6.88,6.88,0,0,1-3.31,1.94v1.49a1.66,1.66,0,1,1-3.31,0v-1.49a7.08,7.08,0,0,1-3.38-2L966,556a1.57,1.57,0,0,1-.85.24,1.63,1.63,0,0,1-1.42-.83,1.74,1.74,0,0,1,.57-2.35l1.24-.77a7.44,7.44,0,0,1,0-4.25l-1.24-.78a1.74,1.74,0,0,1-.57-2.35,1.62,1.62,0,0,1,2.27-.58l1.22.76a7,7,0,0,1,3.38-2v-1.49a1.66,1.66,0,1,1,3.31,0v1.49A7,7,0,0,1,977.2,545l1.13-.69a1.61,1.61,0,0,1,2.26.58,1.75,1.75,0,0,1-.56,2.35Zm-4.08,2.9a3.72,3.72,0,1,0-3.72,3.86A3.79,3.79,0,0,0,976,550.14Z"
          transform="translate(-938.51 -520.51)"/>
</svg>