<svg id="Layer_1" data-name="Layer 1" xmlns="http://www.w3.org/2000/svg" viewBox="0 0 52.49 52.49">
    <defs>
        <style>.cls-1{fill:#103b7f;}</style>
    </defs>
    <path class="cls-1"
          d="M983,532.74V516.22a2,2,0,0,0-2-2H968a1,1,0,0,0-.84,1.55l2.9,4.35a.5.5,0,0,1,0,.55L967.2,525a1,1,0,0,0,.84,1.56h11.82v6.17h-7.72a3.09,3.09,0,0,0-3.09,3.09v7.72a1.54,1.54,0,0,1-1.54,1.55h-9.27a3.08,3.08,0,0,0-3.08,3.08v7.72a1.54,1.54,0,0,1-1.55,1.55h-1.54V555.9a9.27,9.27,0,0,0-4.79-8.1,6.18,6.18,0,1,0-8.95,0,9.27,9.27,0,0,0-4.79,8.1v7.72a3.09,3.09,0,0,0,3.09,3.09H983a3.09,3.09,0,0,0,3.09-3.09V535.83a3.1,3.1,0,0,0-3.09-3.09Zm-10.08-15.43h6a1,1,0,0,1,1,1v4.17a1,1,0,0,1-1,1h-6a.5.5,0,0,1-.41-.78l1.17-1.76a1,1,0,0,0,0-1.09l-1.17-1.77A.49.49,0,0,1,972.87,517.31Zm-33.09,26.85a3.09,3.09,0,1,1,2.42,2.42A3.1,3.1,0,0,1,939.78,544.16Zm-3.15,11.74a6.18,6.18,0,0,1,7.56-6,6.29,6.29,0,0,1,4.79,6.21v.32a1,1,0,0,1-1,1H937.67a1,1,0,0,1-1-1Zm0,6.18h0a1.54,1.54,0,0,1,1.54-1.54h17a3.09,3.09,0,0,0,3.08-3.09v-7.72a1.56,1.56,0,0,1,1.55-1.55h9.26a3.08,3.08,0,0,0,3.09-3.08v-7.72a1.54,1.54,0,0,1,1.54-1.55h7.72a1.54,1.54,0,0,1,1.55,1.55v24.7a1.54,1.54,0,0,1-1.55,1.54H938.17A1.54,1.54,0,0,1,936.63,562.08Z"
          transform="translate(-933.54 -514.22)"/>
</svg>