<svg id="Layer_1" data-name="Layer 1" xmlns="http://www.w3.org/2000/svg" viewBox="0 0 52.84 52.85"><defs><style>.cls-1{fill:#103b7f;}</style></defs><path class="cls-1" d="M969.61,521.48a1.66,1.66,0,0,0-1.48-1.13l-5-.28-1.81-4.94a1.65,1.65,0,0,0-3.1,0l-1.82,4.94-5,.28a1.65,1.65,0,0,0-1,2.9l3.95,3.37-1.32,5.18a1.66,1.66,0,0,0,2.54,1.78l4.17-2.85,4.17,2.85a1.74,1.74,0,0,0,.93.28,1.65,1.65,0,0,0,1.6-2.06l-1.31-5.18,3.93-3.37A1.63,1.63,0,0,0,969.61,521.48Zm-7.35,3.29a1.66,1.66,0,0,0-.54,1.67l.5,2-1.5-1a1.64,1.64,0,0,0-1.86,0l-1.5,1,.49-2a1.69,1.69,0,0,0-.53-1.67l-1.59-1.35,2-.12a1.64,1.64,0,0,0,1.46-1.08l.64-1.73.64,1.73a1.63,1.63,0,0,0,1.45,1.08l2,.12Z" transform="translate(-933.37 -514.04)"/><path class="cls-1" d="M984.56,555.88H970.79v-16a1.65,1.65,0,0,0-1.65-1.65H950.43a1.66,1.66,0,0,0-1.66,1.65v11.56H935a1.64,1.64,0,0,0-1.64,1.65v12.12a1.64,1.64,0,0,0,1.64,1.65h49.55a1.65,1.65,0,0,0,1.65-1.65v-7.71A1.65,1.65,0,0,0,984.56,555.88Zm-35.79,7.7h-12.1v-8.81h12.1Zm18.73,0H952.08v-22H967.5Zm15.4,0H970.79v-4.4H982.9Z" transform="translate(-933.37 -514.04)"/></svg>