<svg id="Layer_1" data-name="Layer 1" xmlns="http://www.w3.org/2000/svg" viewBox="0 0 45.32 46.17">
    <defs>
        <style>.cls-1{fill:#fec90b ;}</style>
    </defs>
    <path class="cls-1"
          d="M968.93,527.83a1.93,1.93,0,0,0-.42-2.1L960.79,518a1.92,1.92,0,0,0-2.73,0h0l-7.72,7.69a1.93,1.93,0,0,0,0,2.72,2,2,0,0,0,1.37.57h1.93v21.16a1.92,1.92,0,0,0,1.93,1.92h7.72a1.93,1.93,0,0,0,1.93-1.92V529h1.93a1.93,1.93,0,0,0,1.78-1.19Z"
          transform="translate(-937.13 -517.47)"/>
    <polygon class="cls-1" points="16.51 42.33 28.09 42.33 28.09 46.17 16.51 46.17 16.51 42.33 16.51 42.33"/>
    <polygon class="cls-1" points="16.51 36.55 28.09 36.55 28.09 40.4 16.51 40.4 16.51 36.55 16.51 36.55"/>
    <path class="cls-1"
          d="M976.66,529.34a1.94,1.94,0,0,0-2.14,0l-5.79,3.85,2.14,3.2,2.79-1.86v8h3.86v-8l2.79,1.86,2.14-3.2-5.79-3.85Z"
          transform="translate(-937.13 -517.47)"/>
    <path class="cls-1"
          d="M972.83,546.65,967,550.5l2.14,3.2,2.79-1.85v7.95h3.86v-7.95l2.79,1.85,2.14-3.2L975,546.65a1.94,1.94,0,0,0-2.14,0Z"
          transform="translate(-937.13 -517.47)"/>
    <path class="cls-1"
          d="M942.92,537l-5.79,3.85,2.14,3.2,2.79-1.85v7.95h3.86v-7.95l2.79,1.85,2.14-3.2L945.06,537a1.94,1.94,0,0,0-2.14,0Z"
          transform="translate(-937.13 -517.47)"/>
</svg>