<svg id="Layer_1" data-name="Layer 1" xmlns="http://www.w3.org/2000/svg" viewBox="0 0 39.38 51.09"><defs><style>.cls-1{fill:#ffcb08;}</style></defs><path class="cls-1" d="M959.79,514.92a19.71,19.71,0,0,0-19.69,19.69c0,7.76,3.25,15.6,9.39,22.69a49.4,49.4,0,0,0,9.33,8.42,1.72,1.72,0,0,0,1,.29,1.69,1.69,0,0,0,1-.29,49.06,49.06,0,0,0,9.33-8.42c6.15-7.09,9.4-14.93,9.4-22.69A19.72,19.72,0,0,0,959.79,514.92Zm0,47.16c-3.62-2.7-16.16-13.08-16.16-27.47a16.16,16.16,0,0,1,32.32,0C976,549,963.41,559.38,959.79,562.08Z" transform="translate(-940.1 -514.92)"/><path class="cls-1" d="M959.79,526.79a7.82,7.82,0,1,0,7.81,7.82A7.83,7.83,0,0,0,959.79,526.79Zm0,12.1a4.29,4.29,0,1,1,4.28-4.28A4.29,4.29,0,0,1,959.79,538.89Z" transform="translate(-940.1 -514.92)"/></svg>