<svg id="Layer_1" data-name="Layer 1" xmlns="http://www.w3.org/2000/svg" viewBox="0 0 43.05 43.05">
    <defs>
        <style>.cls-1{fill:#103b7f;}</style>
    </defs>
    <path class="cls-1"
          d="M966.45,518.94H953.13a14.89,14.89,0,0,0-14.86,14.87v13.32A14.88,14.88,0,0,0,953.13,562h13.32a14.88,14.88,0,0,0,14.86-14.86V533.81A14.88,14.88,0,0,0,966.45,518.94Zm11.44,28.19a11.44,11.44,0,0,1-11.44,11.43H953.13a11.43,11.43,0,0,1-11.43-11.43V533.81a11.44,11.44,0,0,1,11.43-11.44h13.32a11.45,11.45,0,0,1,11.44,11.44Z"
          transform="translate(-938.27 -518.94)"/>
    <path class="cls-1"
          d="M967.33,537.68l-10.2-6.81a3.36,3.36,0,0,0-5.22,2.79v13.62a3.34,3.34,0,0,0,1.77,3,3.38,3.38,0,0,0,1.6.39,3.25,3.25,0,0,0,1.85-.56l10.2-6.81a3.36,3.36,0,0,0,0-5.58Zm-2,2.77-10,6.7V533.79Z"
          transform="translate(-938.27 -518.94)"/>
</svg>