<svg id="Layer_1" data-name="Layer 1" xmlns="http://www.w3.org/2000/svg" viewBox="0 0 42.32 40.39">
    <defs>
        <style>.cls-1{fill:#103b7f;}</style>
    </defs>
    <path class="cls-1"
          d="M971,520.27H948.55a10,10,0,0,0-9.92,10V544a10,10,0,0,0,9.92,10H971A10,10,0,0,0,981,544V530.28A10,10,0,0,0,971,520.27Zm6.61,23.7a6.66,6.66,0,0,1-6.61,6.68H948.55a6.65,6.65,0,0,1-6.61-6.68V530.28a6.64,6.64,0,0,1,6.61-6.67H971a6.65,6.65,0,0,1,6.61,6.67Zm-8.26,15a1.66,1.66,0,0,1-1.66,1.67H951.85a1.67,1.67,0,0,1,0-3.34h15.87A1.66,1.66,0,0,1,969.38,559Zm-1.63-18.79-1.1-.67a7.2,7.2,0,0,0,0-4.31l1.1-.67a1.68,1.68,0,0,0,.56-2.29,1.64,1.64,0,0,0-2.26-.57l-1.13.68a7,7,0,0,0-3.31-1.89V529a1.66,1.66,0,1,0-3.31,0v1.45a7.07,7.07,0,0,0-3.38,1.95l-1.22-.74a1.65,1.65,0,0,0-2.27.57,1.67,1.67,0,0,0,.57,2.29l1.24.75a7.1,7.1,0,0,0,0,4.15l-1.24.75a1.67,1.67,0,0,0-.57,2.29,1.66,1.66,0,0,0,1.42.81,1.57,1.57,0,0,0,.85-.24l1.22-.74a7.07,7.07,0,0,0,3.38,1.95v1.45a1.66,1.66,0,1,0,3.31,0v-1.45a7,7,0,0,0,3.31-1.89l1.13.68a1.54,1.54,0,0,0,.84.24,1.64,1.64,0,0,0,1.42-.81,1.68,1.68,0,0,0-.56-2.29Zm-7.8.93a3.76,3.76,0,1,1,3.72-3.75A3.74,3.74,0,0,1,960,541.13Z"
          transform="translate(-938.63 -520.27)"/>
</svg>