<svg id="Layer_1" data-name="Layer 1" xmlns="http://www.w3.org/2000/svg" viewBox="0 0 47.3 46.25"><defs><style>.cls-1{fill:#fff;}.cls-2{fill:#fdc90a;}</style></defs><g id="Step2_Ico" data-name="Step2 Ico"><path id="Path_2" data-name="Path 2" class="cls-1" d="M960.56,526.66l-.06,0-.53-.17Z" transform="translate(-936.14 -517.34)"/><path id="Path_3" data-name="Path 3" class="cls-1" d="M960.56,526.66l-.06,0-.53-.17Z" transform="translate(-936.14 -517.34)"/><path id="Path_4" data-name="Path 4" class="cls-2" d="M971.93,544a15.75,15.75,0,0,1-.56,4.27,16.32,16.32,0,0,1-23.07.28l-.27-.28a16.32,16.32,0,0,1,11.51-20l.16,0h0A16.33,16.33,0,0,1,971.93,544Z" transform="translate(-936.14 -517.34)"/><path id="Path_5" data-name="Path 5" class="cls-1" d="M960,526.51l.53.17.06,0Z" transform="translate(-936.14 -517.34)"/><path id="Path_6" data-name="Path 6" class="cls-1" d="M983.42,544.37v-1l-.06-.78v-.19l0-.19,0-.39a18.56,18.56,0,0,0-1.82-5.93l-.18-.35-.09-.17-.1-.17c-.13-.23-.26-.45-.38-.68l-.42-.65,0-.09-.06-.07-.11-.16-.23-.32a20.16,20.16,0,0,0-2-2.38l-.34-.32a18,18,0,0,0-2.26-4.82l-.2-.32-.06-.08,0-.07-.12-.16-.22-.31-.12-.15,0-.08-.06-.07-.48-.6-.13-.14-.13-.15-.26-.28a19.35,19.35,0,0,0-2.26-2.08l-.62-.46-.08,0-.08-.06-.16-.1-.32-.22-.16-.11-.16-.09-.33-.2-.33-.2-.35-.18c-.22-.12-.45-.25-.68-.35l-.35-.17-.35-.16-.72-.29-.72-.27a19.36,19.36,0,0,0-3-.75l-.39-.06-.19,0-.19,0-.77-.08-.39,0-.38,0h-.77a18.39,18.39,0,0,0-6.11,1l-.37.13-.18.07-.1,0-.09,0-.72.29-.18.08-.17.09-.35.16c-.24.11-.47.24-.7.36l-.34.18-.17.1-.16.09-.34.21-.16.09-.09.05-.08.06-.64.43-.08.06-.08.06-.16.11-.31.24a18.6,18.6,0,0,0-4.22,4.54l-.22.33-.1.17a1.4,1.4,0,0,0-.1.16l-.39.68-.36.69,0,.08a.36.36,0,0,0,0,.09l-.09.18-.16.35a19.73,19.73,0,0,0-1,2.94l-.15.61a18.38,18.38,0,0,0-2.89,4.15l-.18.34,0,.08,0,.09-.08.19-.15.35-.08.18,0,.09,0,.09-.27.71a1.34,1.34,0,0,0-.07.18l-.06.18-.12.37a19.19,19.19,0,0,0-.69,3l-.09.76s0,.06,0,.1v.28l0,.39v.19a1.15,1.15,0,0,1,0,.19v1.16c0,.26,0,.51,0,.77l0,.38c0,.13,0,.26,0,.39l.09.77.13.76a20.58,20.58,0,0,0,.83,3l.14.36.07.18.07.18.31.71c.06.12.12.23.17.35l.18.35.08.17.1.17.19.34a18.43,18.43,0,0,0,3.9,4.8l.29.25.15.13.07.06.08.06.62.48a1.58,1.58,0,0,0,.15.12l.16.11.32.22c.21.16.43.29.65.43l.33.21.17.09.17.1.34.19.17.1.08,0,.09,0,.7.34.09.05.09,0,.18.08.35.16a20.48,20.48,0,0,0,3,1,21.6,21.6,0,0,0,3.08.46l.39,0h1.16l.78,0h.19l.2,0,.38,0a20.12,20.12,0,0,0,3.08-.57l.62-.17a18.11,18.11,0,0,0,5.19.42l.38,0h.19l.2,0,.38,0,.19,0h.1l.1,0,.75-.12.2,0,.19,0,.37-.08a18.79,18.79,0,0,0,2.93-.92l.71-.3.09,0,.09,0,.17-.08.35-.17.17-.09.17-.09.33-.2.34-.19.33-.2c.22-.14.44-.27.65-.42l.31-.22.32-.23.61-.47.59-.5a18,18,0,0,0,2.15-2.22l.25-.3.12-.15.12-.16.45-.63c.08-.1.14-.21.22-.32l.21-.32.1-.16.1-.17.19-.34a18.19,18.19,0,0,0,2.17-5.79l.07-.38,0-.2s0-.06,0-.09v-.1l.1-.77a1.23,1.23,0,0,0,0-.19l0-.19,0-.39c0-.26,0-.52,0-.78v-.38A1.23,1.23,0,0,0,983.42,544.37ZM941.54,536v-.19l0-.37c0-.12,0-.25,0-.37l0-.37,0-.37v-.19l0-.18,0-.37,0-.18,0-.19.15-.72.17-.72a18.21,18.21,0,0,1,1-2.8l.15-.34.08-.17,0-.08,0-.08.34-.66c.13-.21.25-.43.37-.64l.1-.16.1-.16.2-.31a18.72,18.72,0,0,1,1.81-2.34,18.91,18.91,0,0,1,2.19-2l.29-.22.15-.12.07,0,.08-.05.61-.43.08,0,.08-.05.15-.09.32-.19.16-.1.16-.1.32-.18c.22-.11.44-.24.66-.34l.33-.17.17-.08.17-.08.68-.29.09,0,.08,0,.18-.06.35-.13a18.68,18.68,0,0,1,2.87-.77,18.84,18.84,0,0,1,8.85.57l.7.24.7.27c.12,0,.23.1.35.15l.34.15.67.32a18.37,18.37,0,0,1,6.78,5.84l.21.3.06.08,0,.08.1.16.21.32.1.16,0,.08,0,.08c.26.43.5.88.72,1.33a17.8,17.8,0,0,1,.85,2l-.16-.15-.59-.52-.15-.12-.16-.12-.3-.24-.15-.13-.07-.06-.08,0-.32-.23-.32-.22-.33-.21-.33-.21-.16-.11-.17-.09-.34-.2-.17-.09-.17-.1-.69-.35a19,19,0,0,0-2.91-1.12l-.38-.11-.19-.05-.19,0-.76-.17-.1,0-.09,0-.2,0-.38-.07c-.26,0-.51-.08-.77-.11a18.14,18.14,0,0,0-1.81-.13,22.13,22.13,0,0,0-5.21-2.07h-.21a22.52,22.52,0,0,0-16.78,19.51,18.15,18.15,0,0,1-1.15-5.24l0-.75V536Zm31.59,8.5a18.33,18.33,0,0,1-.59,4.61,18.07,18.07,0,0,1-25.55.13l-.13-.13a14.41,14.41,0,1,1,26.27-4.61Zm-13.16-18,.59.15-.06,0-.53-.17Zm-.58-.41h0a19,19,0,0,0-13.73,21.8,20.26,20.26,0,0,1-1.34-1.89,16,16,0,0,1-.82-1.46,21.68,21.68,0,0,1,16.16-20.35,21.88,21.88,0,0,1,3.51,1.25,20.5,20.5,0,0,0-2.58.35c-.39.08-.78.18-1.17.29Zm-15.84,20.38a20.38,20.38,0,0,0,1.87,2.48,19.45,19.45,0,0,0,2.13,2,19,19,0,0,0,24.6-.26,18.61,18.61,0,0,1-1.08,2.36c-.25.47-.52.92-.81,1.36a21.73,21.73,0,0,1-26.08-3.69,22.33,22.33,0,0,1-.68-4.37A.41.41,0,0,0,943.55,546.48Zm29.52,4.17a18.9,18.9,0,0,0,.64-2.43s0,0,0-.06a19,19,0,0,0-12.36-21.64,20,20,0,0,1,2.32-.22c.36,0,.73,0,1.1,0a21.72,21.72,0,0,1,10.29,24.46,21.61,21.61,0,0,1-3.2,2.69A20.34,20.34,0,0,0,973.07,550.65Zm-16.24,11.91-.37,0-.19,0h-.19l-.74,0h-1.11l-.37,0a18.27,18.27,0,0,1-2.94-.42,17.46,17.46,0,0,1-2.82-.9l-.34-.14-.18-.07-.08,0-.08,0-.67-.32-.09,0-.08,0-.16-.09-.33-.17-.16-.09-.16-.1-.32-.19-.63-.4-.3-.21-.16-.11-.15-.1-.59-.45-.07-.06-.07-.06-.15-.12-.28-.24a19,19,0,0,1-2.09-2.12,18.06,18.06,0,0,1-1.72-2.43,18.73,18.73,0,0,1-2.16-5.54l-.15-.74-.11-.74c0-.12,0-.24,0-.37l0-.37c0-.25,0-.5,0-.75a18.25,18.25,0,0,1,1.73-8.76l.15-.35a.56.56,0,0,0,0-.08l0-.09.09-.16.17-.34.09-.16,0-.09,0-.08c.25-.44.52-.87.8-1.29s.74-1,1.14-1.51v0l-.15.77c0,.07,0,.13,0,.2l0,.19-.06.38,0,.2v.19l0,.38,0,.39c0,.13,0,.26,0,.38l0,.39c0,.06,0,.13,0,.19v1l0,.78a19.94,19.94,0,0,0,.48,3.08l.1.38,0,.19.06.19.23.75,0,.09,0,.1.07.18.13.37c.08.24.19.48.29.72s.33.74.51,1.1v.37a22.66,22.66,0,0,0,.78,5.9l0,.11.07.08a22.57,22.57,0,0,0,25,5l.6-.27a18.47,18.47,0,0,1-4,3.63l-.62.39-.16.1-.16.1-.32.18-.16.09-.17.09-.33.17-.33.16-.34.15-.34.16-.08,0-.09,0-.17.06-.35.14-.17.07-.17.06-.71.23-.71.21a19.22,19.22,0,0,1-2.92.53Zm25.72-18v.38c0,.24,0,.49,0,.74l0,.37v.18a1.23,1.23,0,0,1,0,.19l-.08.74,0,.09s0,.06,0,.1l0,.18-.07.37a19.31,19.31,0,0,1-.77,2.87,18.32,18.32,0,0,1-1.23,2.71,18.52,18.52,0,0,1-3.68,4.67l-.57.5-.58.47a3.3,3.3,0,0,1-.3.22l-.3.22c-.2.15-.41.28-.62.43a18.47,18.47,0,0,1-8.44,3l-.37,0H965l-.38,0h-.38c-.51,0-1,0-1.51,0a19.78,19.78,0,0,1-2.05-.25h0l.74-.25.18-.06.19-.07.36-.14.18-.08.09,0,.09,0,.71-.32.35-.18.35-.18.17-.08.17-.1.34-.19.17-.1.16-.1.66-.42a19.16,19.16,0,0,0,2.45-1.94l.28-.27.14-.14.14-.13.53-.57.07-.07.06-.08.13-.14.25-.3c.17-.19.32-.41.48-.61s.52-.72.77-1.09a22.25,22.25,0,0,0,4.83-3.76l.08-.08,0-.11a22.57,22.57,0,0,0-9.24-24.65h0a18.42,18.42,0,0,1,5.66,1.7l.66.34.16.09.16.1.32.18.16.1.16.09.31.2.31.21.3.21.3.21.08.06.07.05.15.12.29.23.14.11.14.12.56.49.54.51a18.78,18.78,0,0,1,1.93,2.25l.22.3.1.15.06.08.05.07.4.63c.13.21.25.43.37.64a1.4,1.4,0,0,0,.1.16l.08.17.17.33a18.11,18.11,0,0,1,1.12,2.74,18.88,18.88,0,0,1,.65,2.89l0,.37,0,.18,0,.1v.1l0,.74v.93a.54.54,0,0,1,0,.18Z" transform="translate(-936.14 -517.34)"/></g></svg>