<svg id="Layer_1" data-name="Layer 1" xmlns="http://www.w3.org/2000/svg" viewBox="0 0 39.22 39.3"><defs><style>.cls-1{fill:#103b7f;}</style></defs><path class="cls-1" d="M950.64,539.11a3.27,3.27,0,1,1-3.27-3.26,3.27,3.27,0,0,1,3.27,3.26Z" transform="translate(-940.18 -520.81)"/><path class="cls-1" d="M942.79,545h1.31v15.12h2.62v-8.59H948v8.59h2.62V545h4.57l4.58-4.58h0l-2-2h0l-3.92,3.92h-11.2a2.53,2.53,0,0,0-2.53,2.53v6h2.61V545Z" transform="translate(-940.18 -520.81)"/><path class="cls-1" d="M946.72,534.59a4.62,4.62,0,0,1,.65-.05,4.58,4.58,0,0,1,4.57,4.57,4.62,4.62,0,0,1-.44,2h1.86l4.47-4.47,3.81,3.81-5.89,5.88h-3.81v5.23H979.4V520.81H946.72v13.78Zm7.84,15.64h-1.31v-1.31h1.31v1.31Zm2.61,0h-1.3v-1.31h1.3v1.31Zm2.62,0h-1.31v-1.31h1.31v1.31Zm2.61,0h-1.3v-1.31h1.3v1.31Zm2.62,0h-1.31v-1.31H965v1.31Zm.65-6.54h-2.61v-1.31h2.61v1.31Zm0-3.27h-2.61v-1.31h2.61v1.31Zm0-3.27h-2.61v-1.3h2.61v1.3Zm2,13.08h-1.3v-1.31h1.3v1.31Zm2.62,0h-1.31v-1.31h1.31v1.31Zm2.61,0h-1.31v-1.31h1.31v1.31Zm2.62,0h-1.31v-1.31h1.31v1.31Zm.65-6.54H967v-1.31h9.15v1.31Zm0-3.27H967v-1.31h9.15v1.31Zm0-3.27H967v-1.3h9.15v1.3Zm2,13.08h-1.31v-1.31h1.31v1.31ZM950,524.74l5.23,2.61h4.58v-2.61l5.23,2.61h5.23v-2.61l6.53,3.26-6.53,3.27v-2.61H965l-5.23,2.61v-2.61h-4.58L950,531.27v-6.53Z" transform="translate(-940.18 -520.81)"/></svg>