<svg id="Layer_1" data-name="Layer 1" xmlns="http://www.w3.org/2000/svg" viewBox="0 0 42.32 42.32">
    <defs>
        <style>.cls-1{fill:#103b7f;}</style>
    </defs>
    <path id="Home_Ico-2" data-name="Home Ico-2" class="cls-1"
          d="M971.35,561.63H948.86a9.93,9.93,0,0,1-9.91-9.92V537.8a10,10,0,0,1,3.9-7.89l11.24-8.57a10,10,0,0,1,12,0l3.58,2.72V522a1.65,1.65,0,1,1,3.3,0v5.45a1.66,1.66,0,0,1-1.65,1.66,1.63,1.63,0,0,1-1-.35L964.12,524a6.65,6.65,0,0,0-8,0l-11.24,8.57a6.68,6.68,0,0,0-2.6,5.26v13.91a6.62,6.62,0,0,0,6.61,6.61h22.49a6.62,6.62,0,0,0,6.61-6.61V537.8a6.69,6.69,0,0,0-2.58-5.28,1.65,1.65,0,1,1,1.93-2.68l.08,0a10,10,0,0,1,3.87,7.91v13.91A9.93,9.93,0,0,1,971.35,561.63ZM956.8,538.4a2.07,2.07,0,1,0,2.06,2.07h0A2.07,2.07,0,0,0,956.8,538.4Zm8.68,2.07a2.07,2.07,0,1,1-2.07-2.07,2.07,2.07,0,0,1,2.07,2.07Zm-6.62,6.61A2.07,2.07,0,1,1,956.8,545a2.07,2.07,0,0,1,2.06,2.07Zm6.62,0a2.07,2.07,0,1,1-2.07-2.07,2.07,2.07,0,0,1,2.07,2.07Z"
          transform="translate(-938.95 -519.31)"/>
</svg>