<svg id="Layer_1" data-name="Layer 1" xmlns="http://www.w3.org/2000/svg" viewBox="0 0 40.34 36.16">
    <defs>
        <style>.cls-1{fill:#103b7f;}</style>
    </defs>
    <path class="cls-1"
          d="M974.94,548.41l5-5-5-5,.81-.81a3.61,3.61,0,0,0,0-5.09,3.57,3.57,0,0,0-5.08,0l-.81.81-5-5-1.48,1.49v2.35a6,6,0,0,1,0,11.62V551H959l-.87.87,6.69,6.71,5-5,.7.7a3.6,3.6,0,0,0,5.08-5.1Z"
          transform="translate(-939.62 -522.39)"/>
    <path class="cls-1"
          d="M961,548.58v-7.12h1a3.6,3.6,0,0,0,0-7.2h-1v-7.12h-7.1V526a3.59,3.59,0,1,0-7.18,0v1.15h-7.1v7.12h1a3.59,3.59,0,0,1,3.52,2.89,1.16,1.16,0,0,1,.23.71,1.18,1.18,0,0,1-.23.71,3.59,3.59,0,0,1-3.52,2.89h-1v7.12h7.1v-1.14a3.59,3.59,0,1,1,7.18,0v1.14Z"
          transform="translate(-939.62 -522.39)"/>
</svg>