<svg id="Layer_1" data-name="Layer 1" xmlns="http://www.w3.org/2000/svg" viewBox="0 0 34.79 34.47"><defs><style>.cls-1{fill:#ffcb08;}</style></defs><path class="cls-1" d="M977.72,540.74c-.3,1.51-.51,3-.92,4.52a17.06,17.06,0,0,1-14.29,12.24,17.66,17.66,0,0,1-8.07-.79,5.37,5.37,0,0,1-3.89-3.82,4,4,0,0,1,.63-3.24c.15-.23.34-.54.28-.75-.73-2.89,0-5.62.91-8.32a35.4,35.4,0,0,1,6.3-10.84,5.79,5.79,0,0,1,6-1.76,11,11,0,0,1-1.13,5c-.36.78-.75,1.3-1.75,1.3a2.18,2.18,0,0,0-1.56.79,22.17,22.17,0,0,0-3.52,7,3.07,3.07,0,0,0,.59,3.26.66.66,0,0,1,.07.6,10.55,10.55,0,0,1-3.24,4.45c-.44.32-.83.48-1.27,0s-.65-.25-.86.21a3,3,0,0,0,.75,3.41,8.55,8.55,0,0,0,4.92,2,15.4,15.4,0,0,0,10.4-2c4.68-2.79,7.49-6.82,7.77-12.4a15.64,15.64,0,0,0-5.42-13.3A14.62,14.62,0,0,0,963,525a15.2,15.2,0,0,0-10.33,1.58c-4.31,2.53-7.15,6.14-7.83,11.24a17.63,17.63,0,0,0,.39,7.27,26.46,26.46,0,0,0,1.58,3.59,4.38,4.38,0,0,0,.37.58c.26.38.49.8,0,1.16s-.86,0-1.09-.35a19.8,19.8,0,0,1-2.16-3.81c-2.11-6.37-1.06-12.25,3.36-17.32A15.81,15.81,0,0,1,960,523.18a18.71,18.71,0,0,1,8,1.68,16.47,16.47,0,0,1,6.46,5.73,18.15,18.15,0,0,1,3.11,8.7,3,3,0,0,0,.13.52Z" transform="translate(-942.92 -523.18)"/><path class="cls-1" d="M963.72,534.45a11.16,11.16,0,0,0,2-6,1.88,1.88,0,0,1,1.7,2.22c-.22.89-.44,1.8-.75,2.67C966.21,534.75,965.24,535.12,963.72,534.45Z" transform="translate(-942.92 -523.18)"/><path class="cls-1" d="M954.45,551.32a10,10,0,0,0,3.79-5.2,1.75,1.75,0,0,1,1,2.18,5.5,5.5,0,0,1-2,3A2.14,2.14,0,0,1,954.45,551.32Z" transform="translate(-942.92 -523.18)"/></svg>